<?xml version="1.0" encoding="UTF-8" standalone="no"?>
<svg xmlns:osb="http://www.openswatchbook.org/uri/2009/osb" xmlns:dc="http://purl.org/dc/elements/1.1/" xmlns:cc="http://creativecommons.org/ns#" xmlns:rdf="http://www.w3.org/1999/02/22-rdf-syntax-ns#" xmlns:svg="http://www.w3.org/2000/svg" xmlns="http://www.w3.org/2000/svg" xmlns:xlink="http://www.w3.org/1999/xlink" xmlns:sodipodi="http://sodipodi.sourceforge.net/DTD/sodipodi-0.dtd" xmlns:inkscape="http://www.inkscape.org/namespaces/inkscape" inkscape:export-ydpi="32" inkscape:export-xdpi="32" inkscape:export-filename="/fittybones/linux/themes/kde/kde5/mine/konq_icons/process-working-kde16.png" sodipodi:docname="konqueror throbber.svg" inkscape:version="1.1-dev (03ae7f7a49, 2020-01-04)" id="svg23217" version="1.1" viewBox="0 0 12.7 190.4999" height="720" width="48">
<defs id="defs23211">
<linearGradient osb:paint="solid" id="linearGradient23897">
<stop id="stop23895" offset="0" style="stop-color:#000000;stop-opacity:1;" />
</linearGradient>
<linearGradient osb:paint="solid" id="lightblue90">
<stop id="stop23889" offset="0" style="stop-color:#5789bd;stop-opacity:0.9019608;" />
</linearGradient>
<linearGradient osb:paint="solid" id="32opaq">
<stop id="stop23877" offset="0" style="stop-color:#000000;stop-opacity:0.3176471;" />
</linearGradient>
<linearGradient gradientUnits="userSpaceOnUse" y2="6.201957" x2="11.81677" y1="6.201957" x1="0.941676" id="linearGradient23893" xlink:href="#lightblue90" inkscape:collect="always" />
<linearGradient gradientUnits="userSpaceOnUse" y2="94.99732" x2="11.81783" y1="94.99732" x1="0.8553625" id="linearGradient23899" xlink:href="#lightblue90" inkscape:collect="always" />
</defs>
<sodipodi:namedview inkscape:snap-global="false" inkscape:window-maximized="1" inkscape:window-y="0" inkscape:window-x="0" inkscape:window-height="1009" inkscape:window-width="1916" inkscape:guide-bbox="true" showguides="true" units="px" showgrid="true" inkscape:current-layer="layer1" inkscape:document-units="px" inkscape:cy="68.80632" inkscape:cx="-21.36852" inkscape:zoom="4" inkscape:pageshadow="2" inkscape:pageopacity="0.0" borderopacity="1.0" bordercolor="#666666" pagecolor="#ffffff" id="base">
<inkscape:grid empopacity="0.2509804" empcolor="#797986" enabled="true" opacity="0.1254902" color="#767689" spacingy="0" spacingx="0" empspacing="48" id="grid23812" type="xygrid" />
<sodipodi:guide id="guide23829" orientation="0,-1" position="9.705225,181.8938" />
<sodipodi:guide id="guide23831" orientation="0,-1" position="-62.91317,190.1032" />
<sodipodi:guide id="guide23833" orientation="0,-1" position="-9.591092,12.30356" />
</sodipodi:namedview>
<metadata id="metadata23214">
<rdf:RDF>
<cc:Work rdf:about="">
<dc:format>image/svg+xml</dc:format>
<dc:type rdf:resource="http://purl.org/dc/dcmitype/StillImage" />
<dc:title></dc:title>
</cc:Work>
</rdf:RDF>
</metadata>
<g style="display:inline" id="layer1" inkscape:groupmode="layer" inkscape:label="konq icon 48x48">
<g style="display:inline" inkscape:label="48x720" id="layer6" inkscape:groupmode="layer">
<path inkscape:export-ydpi="95.3108" inkscape:export-xdpi="95.3108" inkscape:export-filename="/fittybones/linux/themes/kde/kde5/mine/konq_icons/process-working-kde.png" id="rect23186" style="fill:url(#linearGradient23899);fill-opacity:1;stroke-width:0.134342" d="M 7.265483,0.3935323 6.419337,0.4756846 5.573415,0.55749 5.499911,4.477388 5.426407,8.397296 6.29378,8.313961 C 7.137302,8.232775 7.164078,8.19149 7.292852,6.797391 L 7.425002,5.36454 8.549402,6.971412 9.673347,8.577893 10.59959,8.293425 C 11.10921,8.137043 11.52314,7.880399 11.51939,7.722916 11.51157,7.565432 10.98697,6.740422 10.34466,5.889695 L 9.176468,4.343283 10.49684,2.662397 11.8178,0.981886 10.70818,0.6830632 C 10.08703,0.5158489 9.527843,0.4864183 9.437998,0.6160215 9.349609,0.7433743 8.860945,1.437171 8.351703,2.157776 L 7.425451,3.467759 7.345875,1.930659 Z M 3.458048,2.074044 c -0.13965,0.0095 -0.2925,0.07581 -0.503398,0.188742 -0.604423,0.323451 -0.617923,0.384188 -0.268273,1.220856 0.502798,1.203518 0.254548,1.70415 -0.845774,1.70415 -0.814345,0 -0.8978949,0.07117 -0.8978949,0.767776 0,0.615318 0.1574999,0.822782 0.7937239,1.044512 0.88267,0.307693 1.029293,0.950059 0.405371,1.775086 -0.476022,0.62942 -0.476622,0.661795 -0.02326,1.260004 0.338923,0.44708 0.422848,0.45178 1.165419,0.0678 0.96022,-0.49656 1.625994,-0.304246 1.631543,0.4709 0.0083,0.68305 0.256348,1.0969 0.789599,1.29995 0.682201,0.25972 0.745125,0.21667 1.058399,-0.73293 v 0 c 0.337573,-1.02266 0.853947,-1.172055 1.788516,-0.51738 0.44633,0.31255 0.708829,0.34134 1.117057,0.12285 0.293689,-0.15712 0.534144,-0.34592 0.534144,-0.41936 0,-0.27201 -1.075126,-2.228912 -1.224297,-2.228912 -0.08516,0 -0.523496,0.310489 -0.974321,0.689875 C 7.314608,9.368573 6.999686,9.456851 6.016663,9.346046 4.292045,9.151651 3.456024,8.216338 3.456024,6.481509 3.456024,5.348003 3.568298,5.045612 4.183895,4.51613 5.083216,3.742516 5.096866,3.337428 4.250641,2.542616 3.885468,2.199608 3.690244,2.058247 3.457671,2.074044 Z m 3.807435,11.019396 -0.846146,0.0823 -0.845922,0.0818 -0.07349,3.91994 -0.07349,3.91995 0.867373,-0.0836 c 0.843515,-0.0812 0.87029,-0.12244 0.999065,-1.51653 l 0.13215,-1.43285 1.124399,1.60685 1.123945,1.60641 0.926253,-0.28447 c 0.50961,-0.15619 0.92354,-0.41285 0.91979,-0.57036 -0.008,-0.15749 -0.53242,-0.9825 -1.17473,-1.83321 L 9.176485,17.04325 10.49686,15.36236 11.81782,13.68184 10.7082,13.38305 c -0.62117,-0.1673 -1.180346,-0.19669 -1.270192,-0.0668 -0.08839,0.12737 -0.577053,0.82111 -1.086295,1.54179 l -0.926254,1.30992 -0.07957,-1.53712 z m -3.597436,1.38908 c -0.552447,-0.0286 -0.938846,0.55101 -0.621372,1.38637 0.383773,1.00934 0.09766,1.44937 -1.001696,1.54102 -0.822672,0.0684 -0.981672,0.18516 -1.0496963,0.77047 -0.064499,0.5546 0.078141,0.75531 0.7276493,1.02434 0.935843,0.38768 1.04077,1.03575 0.278624,1.72544 -1.0412236,0.94223 -0.318525,1.97496 1.048719,1.49835 0.988795,-0.34472 1.596819,0.14969 1.596819,1.29877 0,0.64799 0.107548,0.77474 0.655045,0.77474 0.459753,0 0.776699,-0.23625 1.065,-0.79373 C 6.85231,22.77004 7.18471,22.72078 7.981051,23.46876 8.3946,23.85731 8.744024,23.96788 9.150231,23.83887 9.645148,23.68189 9.702299,23.53331 9.540522,22.82196 9.436347,22.36362 9.356627,21.78268 9.363374,21.53091 9.384394,20.75182 8.905954,20.72962 8.027477,21.46871 7.313859,22.06907 7.006285,22.15727 6.017114,22.04583 4.292495,21.85143 3.456473,20.9161 3.456473,19.18127 c 0,-1.13353 0.11235,-1.4363 0.727872,-1.9658 0.824322,-0.70909 0.933671,-1.5721 0.289498,-2.28394 C 4.204371,14.6339 3.919221,14.49538 3.668047,14.48233 Z m 3.597436,11.31091 -0.846146,0.0823 -0.845922,0.0819 -0.07349,3.91985 -0.07349,3.91994 0.867373,-0.0834 c 0.843519,-0.0813 0.870294,-0.12248 0.999069,-1.51657 l 0.13215,-1.43288 1.124399,1.60687 1.123945,1.6065 0.926249,-0.2841 c 0.50962,-0.15639 0.92355,-0.41341 0.9198,-0.57091 -0.008,-0.15749 -0.53242,-0.98249 -1.17473,-1.83319 L 9.176484,29.7432 10.49686,28.0623 11.81782,26.3818 10.7082,26.08299 C 10.08704,25.91574 9.52786,25.88635 9.438014,26.01629 9.349629,26.14365 8.860961,26.83747 8.351719,27.55807 L 7.425467,28.86804 7.345902,27.33092 Z M 4.34012,26.93906 c -0.140924,-0.009 -0.312148,0.0211 -0.518098,0.0868 -0.477823,0.15155 -0.533848,0.31768 -0.396524,1.17665 0.190349,1.19061 -0.278998,1.73653 -1.277544,1.48595 -0.485324,-0.12187 -0.725247,-0.0315 -0.929247,0.34995 -0.3996733,0.74657 -0.3419233,1.02119 0.254175,1.21043 0.291147,0.0924 0.65902,0.41053 0.817346,0.70649 0.238949,0.44633 0.167099,0.6642 -0.420823,1.27784 -0.587622,0.61344 -0.659623,0.83205 -0.420899,1.27786 0.244874,0.45756 0.412723,0.5018 1.127322,0.29685 1.07332,-0.30781 1.542668,0.0615 1.542668,1.21387 0,1.26374 1.12552,1.63828 1.625393,0.54103 v 0 c 0.413098,-0.9065 1.136997,-1.00754 1.841694,-0.25731 0.686545,0.7308 0.770318,0.74842 1.392597,0.29341 C 9.362929,36.3176 9.392921,36.13295 9.155403,35.50827 8.944279,34.95313 8.951177,34.65791 9.181672,34.38043 9.4081,34.10758 9.414029,33.92488 9.203391,33.71421 8.992642,33.50345 8.685663,33.61543 8.083193,34.12227 6.912219,35.10778 5.475299,35.07965 4.321428,34.04877 3.556882,33.36559 3.457208,33.11968 3.457208,31.90941 c 0,-1.1637 0.108374,-1.46071 0.727498,-1.99326 0.567522,-0.48818 0.72787,-0.85807 0.72787,-1.68128 0,-0.88168 -0.149623,-1.26802 -0.572097,-1.29569 z m 2.925363,11.55432 -0.846146,0.0823 -0.845922,0.0816 -0.07349,3.91995 -0.07349,3.91985 0.867373,-0.0835 c 0.843519,-0.0812 0.870294,-0.12239 0.999069,-1.51648 l 0.13215,-1.43287 1.124399,1.60686 1.123945,1.60649 0.926249,-0.2841 c 0.50962,-0.15636 0.92355,-0.4134 0.9198,-0.57089 -0.008,-0.15742 -0.53242,-0.98249 -1.17473,-1.83321 L 9.176481,42.44311 10.49686,40.7622 11.81782,39.08167 10.7082,38.78281 C 10.08703,38.61569 9.52785,38.58622 9.438004,38.71612 9.34962,38.84352 8.860951,39.53728 8.351709,40.25787 L 7.425458,41.5679 7.345892,40.03078 Z m -2.656488,0.86466 c -0.114901,0 -0.272251,0.0816 -0.48555,0.2163 -0.251848,0.15922 -0.363372,0.57291 -0.312749,1.16 0.0915,1.06305 -0.258972,1.36893 -1.450944,1.26616 -0.673347,-0.0578 -0.878096,0.0465 -1.029895,0.52478 -0.143099,0.45104 -0.03601,0.72208 0.439499,1.1085 0.738595,0.60059 0.688571,1.17052 -0.167101,1.90257 -0.499423,0.42727 -0.571872,0.64777 -0.375223,1.14564 0.2064,0.52199 0.367499,0.58963 1.049321,0.43986 1.130922,-0.24841 1.632369,0.23131 1.420793,1.35922 -0.143397,0.76492 -0.08009,0.92084 0.458025,1.1298 0.510972,0.19837 0.712195,0.12682 1.109245,-0.39457 0.266922,-0.35032 0.703273,-0.63713 0.970197,-0.63713 0.2667,0 0.712947,0.31267 0.991345,0.69488 0.441752,0.60645 0.580275,0.6549 1.08982,0.38219 0.466946,-0.24998 0.56872,-0.50791 0.508201,-1.28985 -0.07494,-0.96493 -0.06303,-0.97806 0.921975,-0.99644 0.548616,-0.0105 1.143736,-0.17505 1.322766,-0.36584 0.26588,-0.28365 0.1617,-0.31636 -0.5709,-0.17912 -0.682878,0.12796 -0.977089,0.0578 -1.235471,-0.29572 -0.31807,-0.43507 -0.380396,-0.42487 -1.005524,0.16239 -0.415117,0.39007 -1.106841,0.67561 -1.835538,0.7577 -1.024271,0.11552 -1.280246,0.0322 -2.066917,-0.67048 -0.801447,-0.71602 -0.897897,-0.9489 -0.897897,-2.1696 0,-1.16375 0.108523,-1.46069 0.727872,-1.99333 0.614922,-0.52897 0.727496,-0.83258 0.727496,-1.96147 0,-0.93997 -0.04949,-1.30221 -0.302846,-1.29644 z m 2.656488,11.83525 -0.846146,0.0823 -0.845922,0.0818 -0.07349,3.91992 -0.07349,3.91994 0.867373,-0.0836 c 0.843519,-0.0811 0.870294,-0.1223 0.999069,-1.51646 l 0.13215,-1.43281 1.124399,1.60687 1.123945,1.60642 0.926249,-0.28403 c 0.50962,-0.15637 0.92355,-0.41347 0.9198,-0.57089 -0.008,-0.15749 -0.53242,-0.98251 -1.17473,-1.83324 L 9.176484,55.14309 10.49686,53.4622 11.81782,51.78168 10.7082,51.48287 C 10.08703,51.31558 9.52785,51.28609 9.438004,51.41608 9.34962,51.54342 8.860951,52.23723 8.351709,52.95783 l -0.926251,1.30995 -0.07957,-1.53711 z m -2.67314,0.86781 c -0.172424,-0.0255 -0.370873,0.35811 -0.474297,1.16896 -0.130951,1.02614 -0.144075,1.0368 -1.194597,0.97356 -0.844118,-0.051 -1.135643,0.054 -1.420418,0.50962 -0.323249,0.5175 -0.290099,0.62287 0.335025,1.0782 0.899321,0.65513 0.875695,0.97544 -0.131625,1.80344 -0.642299,0.52808 -0.7875731,0.81021 -0.645898,1.25647 0.139124,0.43831 0.391348,0.57554 1.05847,0.57554 0.767772,0 1.632969,0.51548 1.372795,0.81818 -0.051,0.0594 -0.170249,0.4308 -0.264749,0.82514 -0.135075,0.5634 -0.05248,0.78098 0.386399,1.0158 0.473847,0.25365 0.678672,0.18495 1.353746,-0.45268 l 0.795747,-0.75114 0.698696,0.86587 c 0.970121,1.20194 1.714041,1.06942 1.889841,-0.33681 0.131401,-1.05031 0.14033,-1.05757 1.194446,-0.99413 0.839996,0.0503 1.136026,-0.0547 1.415026,-0.50151 0.33892,-0.54249 0.31889,-0.55816 -0.50302,-0.39375 -0.640356,0.12802 -0.939231,0.0578 -1.184481,-0.2775 C 8.972028,58.83199 8.877598,58.85323 8.099108,59.50828 6.544137,60.81671 4.378594,60.2753 3.594399,58.38202 3.148674,57.30591 3.452721,55.86855 4.260319,55.23336 c 0.542775,-0.42704 0.651522,-0.74205 0.651522,-1.88595 0,-0.82602 -0.146849,-1.26071 -0.319498,-1.28631 z m 2.67314,11.83217 -0.846146,0.0823 -0.845922,0.0819 -0.07349,3.91987 -0.07349,3.91992 0.867373,-0.0835 c 0.843513,-0.0813 0.870288,-0.12248 0.999063,-1.5166 l 0.13215,-1.43285 1.1244,1.60687 1.123945,1.60648 0.926254,-0.28409 c 0.50961,-0.15638 0.92354,-0.41339 0.91979,-0.5709 -0.008,-0.1575 -0.53242,-0.9825 -1.17472,-1.83323 l -1.168198,-1.5464 1.320378,-1.68088 1.32096,-1.68052 -1.10962,-0.2988 C 10.08703,64.01556 9.527853,63.98616 9.438007,64.11604 9.349622,64.2434 8.860954,64.9372 8.351712,65.6578 L 7.42546,66.96784 7.345895,65.43071 Z m -2.460666,1.06929 c -0.0195,0.0203 -0.04574,0.23586 -0.08685,0.63059 -0.1197,1.15237 -0.530249,1.41037 -1.633195,1.02593 -0.645669,-0.22516 -0.85267,-0.18496 -1.237644,0.2403 -0.441299,0.48773 -0.436346,0.53781 0.11055,1.12005 0.801522,0.85318 0.725323,1.48995 -0.220873,1.84715 -0.619874,0.23392 -0.7937238,0.46111 -0.7937238,1.03559 0,0.66248 0.090671,0.73563 0.9125968,0.73563 1.127921,0 1.51087,0.55917 1.110072,1.62126 -0.231975,0.61463 -0.204224,0.83956 0.146248,1.18982 0.399224,0.3996 0.490947,0.39014 1.222794,-0.13097 1.080447,-0.76951 1.334472,-0.71496 1.794446,0.38604 0.278625,0.66712 0.516897,0.90299 0.801896,0.79371 0.222825,-0.0856 0.514724,-0.15578 0.648301,-0.15578 0.133723,0 0.243075,-0.42051 0.243075,-0.93449 0,-1.09104 0.497019,-1.40192 1.506147,-0.94218 0.561145,0.25579 0.764313,0.23155 1.172703,-0.13799 0.56221,-0.5088 0.21712,-1.23974 -0.4623,-0.97897 C 9.823945,72.39075 9.485991,72.23554 9.285972,71.96176 8.935125,71.48198 8.901153,71.48639 8.256822,72.09157 7.841705,72.48164 7.149977,72.76716 6.421279,72.84929 5.397008,72.96472 5.141034,72.8815 4.354363,72.17881 3.559665,71.4687 3.456467,71.22435 3.456467,70.0495 c 0,-1.08743 0.131549,-1.46453 0.72787,-2.08672 0.611999,-0.63878 0.720297,-0.96759 0.682799,-2.06812 -0.0225,-0.65942 -0.0375,-0.95776 -0.06224,-0.9321 z m 2.460666,11.63066 -0.846146,0.0818 -0.845922,0.0819 -0.07349,3.91989 -0.07349,3.91991 0.867373,-0.0835 c 0.84352,-0.0812 0.870295,-0.12203 0.99907,-1.51613 l 0.13215,-1.43287 1.1244,1.60649 1.123945,1.60651 0.926257,-0.28412 c 0.50925,-0.15617 0.92294,-0.41288 0.91979,-0.57045 -0.008,-0.15802 -0.53263,-0.98249 -1.17472,-1.83286 L 9.176484,80.54301 10.49686,78.8625 11.81782,77.18159 10.7082,76.88282 c -0.62117,-0.16731 -1.18035,-0.1968 -1.270196,-0.0675 -0.08838,0.12735 -0.577053,0.82118 -1.086295,1.54179 l -0.926252,1.31035 -0.07958,-1.53713 z m -4.475982,2.24753 c -0.173174,0.0101 -0.318075,0.11234 -0.540297,0.31358 -0.487798,0.44136 -0.487198,0.46672 0.02476,1.18596 0.646346,0.90764 0.436198,1.55399 -0.570449,1.75528 -0.617321,0.12347 -0.7604219,0.28967 -0.7604219,0.8833 0,0.62225 0.1343249,0.7565 0.9006729,0.90036 1.091845,0.20476 1.374594,0.7992 0.798371,1.67857 -0.403873,0.61641 -0.397875,0.68843 0.10395,1.19018 l 0.533997,0.53406 0.700273,-0.55108 c 0.839771,-0.66039 1.405494,-0.50769 1.631768,0.44068 0.243826,1.02225 0.348451,1.1343 0.978296,1.04445 0.412348,-0.0586 0.638548,-0.35618 0.815773,-1.07355 v 0 C 7.668691,86.07965 8.185215,85.87647 9.127817,86.46507 9.52306,86.71189 9.72211,86.70499 10.05015,86.43287 10.6026,85.97442 10.58137,85.38253 10.00585,85.1663 9.751132,85.07069 9.403656,84.80641 9.233402,84.57909 8.95973,84.21369 8.842665,84.24265 8.21994,84.82755 7.179389,85.80526 5.205472,85.76979 4.1911,84.75552 3.588483,84.15297 3.457458,83.78974 3.457458,82.72228 c 0,-1.0572 0.135974,-1.44087 0.72787,-2.05874 0.753299,-0.78621 0.975522,-1.52465 0.396901,-1.31811 -0.18195,0.0652 -0.669147,-0.0526 -1.08247,-0.26168 C 3.164357,78.91433 2.963208,78.83129 2.790111,78.8412 Z m 4.475982,10.4524 -0.846146,0.0819 -0.845922,0.0818 -0.07349,3.91994 -0.07349,3.91987 0.867373,-0.0834 c 0.843519,-0.0813 0.870294,-0.12198 0.999069,-1.51617 l 0.13215,-1.43278 1.124399,1.60642 1.123945,1.60688 0.926249,-0.2845 c 0.50925,-0.15629 0.92295,-0.41301 0.9198,-0.57044 -0.008,-0.1581 -0.53264,-0.98295 -1.17473,-1.83319 L 9.176477,93.24291 10.49685,91.56202 11.81781,89.88151 10.70819,89.5827 C 10.08703,89.41544 9.527854,89.38589 9.438008,89.5152 9.349623,89.64253 8.860955,90.33637 8.351713,91.05697 l -0.926251,1.31039 -0.07956,-1.53712 z m -4.098134,1.78943 c -0.172049,-0.007 -0.291898,0.12338 -0.528223,0.38452 -0.449247,0.4965 -0.450298,0.56543 -0.02476,1.28633 0.410024,0.69433 0.412799,0.79895 0.0315,1.18019 -0.229948,0.22994 -0.693297,0.41775 -1.029819,0.41775 -0.444525,0 -0.6469489,0.18321 -0.7401735,0.67086 -0.1313995,0.68744 0.3793485,1.18134 1.2219695,1.18134 0.619872,0 0.775649,0.95668 0.278999,1.71463 -0.418347,0.63855 -0.418122,0.71084 0.0083,1.17899 0.420449,0.46438 0.501823,0.47007 1.181095,0.08 0.965321,-0.55399 1.612643,-0.28216 1.612643,0.67781 0,0.9161 0.167699,1.1106 0.958048,1.1106 0.480073,0 0.640572,-0.1878 0.775497,-0.9075 v 0 c 0.213899,-1.14014 0.752322,-1.35856 1.694842,-0.68756 0.725326,0.51649 0.741365,0.51659 1.196393,0.013 C 10.24375,98.89741 10.23784,98.8308 9.684406,97.93527 9.36529,97.41883 9.032361,96.9962 8.944467,96.9962 c -0.08799,0 -0.428105,0.25217 -0.755701,0.56004 -0.350846,0.32942 -1.087193,0.61516 -1.790314,0.69443 -1.063538,0.11986 -1.281413,0.048 -1.987309,-0.6585 -1.349933,-1.3499 -1.40296,-2.77294 -0.158564,-4.2517 0.363749,-0.43237 0.660222,-0.88823 0.658422,-1.01272 0,-0.12451 -0.406574,-0.48744 -0.899096,-0.80648 C 3.565973,91.23333 3.341724,91.08917 3.169673,91.0822 Z m 4.098134,10.91042 -0.846146,0.082 -0.845922,0.082 -0.07349,3.9195 -0.07349,3.9198 0.867373,-0.084 c 0.843521,-0.081 0.870296,-0.122 0.999071,-1.5161 l 0.13215,-1.4328 1.124399,1.6065 1.123945,1.607 0.926257,-0.2846 c 0.50961,-0.1565 0.92354,-0.4129 0.91979,-0.5705 -0.008,-0.1576 -0.53242,-0.9822 -1.17472,-1.8328 l -1.168206,-1.5468 1.320386,-1.681 1.32095,-1.6806 -1.10962,-0.2987 c -0.62115,-0.1672 -1.180341,-0.1968 -1.270186,-0.068 -0.08839,0.1273 -0.577053,0.8211 -1.086295,1.5417 l -0.926251,1.3103 -0.07958,-1.5369 z m -3.689761,1.2473 -0.537147,0.5373 c -0.461174,0.4612 -0.492748,0.6343 -0.223274,1.2258 0.438149,0.9613 0.158774,1.4663 -0.86497,1.5646 -0.722099,0.069 -0.889198,0.206 -0.9556487,0.781 -0.066005,0.571 0.065243,0.7472 0.7274227,0.9782 0.921748,0.3213 1.011896,0.8094 0.354673,1.9219 -0.408972,0.6924 -0.413398,0.8088 -0.04575,1.1763 0.326249,0.3263 0.558825,0.3505 1.160845,0.1217 1.027347,-0.3904 1.455744,-0.1636 1.455744,0.772 0,0.7558 0.519748,1.3178 1.235924,1.3364 0.170623,0.01 0.447672,-0.4089 0.615896,-0.9181 v 0 c 0.354447,-1.0738 0.886048,-1.1803 1.766096,-0.3533 0.577874,0.5426 0.635775,0.5488 1.110066,0.1195 0.43995,-0.3981 0.463571,-0.5764 0.196419,-1.4808 -0.418262,-1.4165 -0.590918,-1.5143 -1.374964,-0.7778 -0.962619,0.9043 -2.960088,0.9057 -3.92106,0 -1.219644,-1.1459 -1.15732,-3.2456 0.13095,-4.4115 0.684371,-0.6193 0.634573,-1.2195 -0.163124,-1.9687 z m 3.689761,11.4527 -0.846146,0.082 -0.845922,0.082 -0.07349,3.9201 -0.07349,3.9196 0.867373,-0.084 c 0.843521,-0.081 0.870296,-0.122 0.999071,-1.5163 l 0.13215,-1.4327 1.124399,1.6065 1.123945,1.6064 0.926257,-0.2842 c 0.50924,-0.156 0.92294,-0.4129 0.91979,-0.5704 -0.008,-0.1581 -0.53264,-0.9826 -1.17472,-1.833 l -1.168206,-1.5466 1.320386,-1.6806 1.32095,-1.681 -1.10962,-0.2986 c -0.62115,-0.1673 -1.180341,-0.1967 -1.270186,-0.068 -0.08839,0.1274 -0.577053,0.8211 -1.086295,1.5419 l -0.926251,1.3103 -0.07958,-1.5371 z m -3.284311,1.2709 c -0.136575,-0.01 -0.27585,0.066 -0.4836,0.2177 -0.376272,0.2761 -0.446698,0.5472 -0.307423,1.1816 0.2286,1.0409 -0.179323,1.5631 -1.086445,1.3897 -1.2165713,-0.2326 -1.628169,1.2305 -0.491698,1.7482 0.95887,0.437 1.084645,1.0248 0.379424,1.7757 -0.518699,0.5519 -0.563174,0.7409 -0.305775,1.3056 0.265051,0.5819 0.384375,0.6285 1.004621,0.3925 1.166621,-0.4436 1.69252,-0.1059 1.69252,1.0869 0,0.9306 0.06899,1.0402 0.654596,1.0402 0.459823,0 0.776698,-0.2362 1.065073,-0.7939 v 0 c 0.502197,-0.971 0.985569,-1.005 1.682696,-0.1189 0.450441,0.5726 0.607419,0.6271 1.035666,0.3596 0.396074,-0.2472 0.494928,-0.5912 0.459148,-1.5999 -0.02476,-0.7066 -0.125179,-1.365 -0.223052,-1.4628 -0.09798,-0.098 -0.485171,0.1099 -0.860022,0.4622 -1.017965,0.9564 -3.00351,0.9098 -4.006782,-0.094 -0.602695,-0.6026 -0.733646,-0.9659 -0.733646,-2.033 0,-1.0575 0.135901,-1.4413 0.727872,-2.059 0.832047,-0.8687 0.94117,-1.911 0.264298,-2.5216 -0.197024,-0.1778 -0.330748,-0.2687 -0.467471,-0.2771 z m 3.284311,11.429 -0.846146,0.082 -0.845922,0.082 -0.07349,3.92 -0.07349,3.92 0.867373,-0.083 c 0.843521,-0.081 0.870296,-0.122 0.999071,-1.5163 l 0.13215,-1.4326 1.124399,1.6063 1.123945,1.607 0.926257,-0.2846 c 0.50924,-0.1562 0.92294,-0.4129 0.91979,-0.5705 -0.008,-0.158 -0.53264,-0.9828 -1.17472,-1.8332 l -1.168206,-1.5463 1.320386,-1.6809 1.32095,-1.6805 -1.10962,-0.2987 c -0.62115,-0.1675 -1.180341,-0.1969 -1.270186,-0.068 -0.08839,0.1272 -0.577053,0.8212 -1.086295,1.5416 l -0.926251,1.3105 -0.07958,-1.5371 z m -2.784665,1.118 c -0.153599,0.01 -0.357373,0.093 -0.626247,0.2367 -0.397871,0.2127 -0.451274,0.4123 -0.273675,1.0312 0.284324,0.9915 -0.07897,1.3504 -1.367842,1.3504 -0.552822,0 -1.005297,0.1092 -1.005297,0.2429 0,0.1337 -0.06149,0.4041 -0.137699,0.6013 -0.080175,0.2093 0.194474,0.5548 0.661197,0.8305 0.982046,0.58 1.010021,1.0797 0.104025,1.8592 -0.513972,0.4421 -0.649123,0.7449 -0.517123,1.1608 0.148424,0.4678 0.366074,0.5542 1.290969,0.5135 l 1.112097,-0.049 0.08549,1.0548 c 0.1254,1.5402 1.127321,2.0154 1.682168,0.7973 v 0 c 0.374999,-0.823 1.39897,-0.8887 1.812294,-0.1162 0.186748,0.349 0.499878,0.5159 0.869323,0.4632 0.469725,-0.067 0.581023,-0.2642 0.596692,-1.0573 0.01009,-0.5362 0.178424,-1.1662 0.372527,-1.4003 0.265126,-0.3194 0.277419,-0.5009 0.05019,-0.7283 -0.227255,-0.2273 -0.473706,-0.1417 -0.989028,0.3423 -0.967194,0.9085 -2.961887,0.9121 -3.925258,0.01 -1.219645,-1.1456 -1.157319,-3.2456 0.13095,-4.4113 0.349273,-0.3161 0.504973,-0.8113 0.504973,-1.6066 0,-0.8121 -0.09323,-1.1439 -0.430949,-1.1221 z m 6.282892,7.1156 c -0.29093,0 -0.60265,0.1193 -0.69257,0.2647 -0.09008,0.1456 0.0743,0.2649 0.36594,0.2649 0.29092,0 0.60269,-0.1193 0.69254,-0.2649 0.0899,-0.1454 -0.0754,-0.2647 -0.36591,-0.2647 z m -3.498227,4.4665 -0.846146,0.082 -0.845922,0.082 -0.07349,3.9195 -0.07349,3.9199 0.867373,-0.083 c 0.843521,-0.081 0.870296,-0.1219 0.999071,-1.5161 l 0.13215,-1.4327 1.124399,1.6063 1.123945,1.6069 0.926257,-0.2845 c 0.50961,-0.1563 0.92354,-0.4131 0.91979,-0.5704 -0.008,-0.1575 -0.53242,-0.9821 -1.17472,-1.8328 l -1.168206,-1.5469 1.320386,-1.681 1.32095,-1.6805 -1.10962,-0.2987 c -0.62115,-0.1673 -1.180343,-0.1968 -1.270188,-0.068 -0.0884,0.1274 -0.577053,0.8212 -1.086295,1.5418 l -0.926251,1.3103 -0.07958,-1.5369 z m -2.54519,0.9619 c -0.08114,0 -0.19665,0.052 -0.360749,0.1408 -0.421874,0.2257 -0.513148,0.4524 -0.385722,0.9603 0.250197,0.9969 -0.258149,1.4345 -1.44682,1.2445 -0.881096,-0.1408 -1.02337,-0.087 -1.193621,0.4496 -0.150975,0.4752 -0.0405,0.7313 0.501899,1.1638 0.918372,0.7323 0.87862,1.3522 -0.11985,1.8685 -0.541797,0.2804 -0.7636469,0.5561 -0.661646,0.8224 0.08475,0.2203 0.153973,0.5032 0.153973,0.6281 0,0.1253 0.505872,0.2643 1.124396,0.3091 l 1.12432,0.082 -0.069,1.1064 c -0.05849,0.9385 0.0195,1.1333 0.513972,1.2904 0.440922,0.14 0.730047,0.013 1.189794,-0.5217 0.496499,-0.5772 0.701698,-0.6559 1.121996,-0.431 0.282976,0.1514 0.590174,0.5136 0.682649,0.8046 0.188475,0.594 0.464324,0.6538 1.200753,0.2599 0.377395,-0.2021 0.467248,-0.455 0.356767,-1.0072 -0.199871,-0.9991 0.375226,-1.4761 1.338442,-1.1098 0.920914,0.3501 0.873094,0.3616 1.226104,-0.298 0.28852,-0.5391 0.26018,-0.5597 -0.55597,-0.3965 -0.644776,0.1289 -0.942825,0.06 -1.188448,-0.276 -0.301057,-0.4117 -0.399678,-0.3884 -1.2081,0.2918 -0.758624,0.6385 -1.045348,0.7221 -2.074643,0.6063 -2.158043,-0.2433 -3.26294,-2.2344 -2.286968,-4.1216 0.208725,-0.4036 0.565723,-0.8887 0.793723,-1.0777 0.273072,-0.2266 0.414373,-0.7868 0.414373,-1.6437 0,-0.8498 -0.012,-1.1386 -0.191551,-1.1446 z m 2.54519,11.7381 -0.846146,0.082 -0.845922,0.082 -0.07349,3.9198 -0.07349,3.92 0.867373,-0.083 c 0.843521,-0.081 0.870296,-0.122 0.999071,-1.5162 l 0.13215,-1.4329 1.124399,1.6066 1.123945,1.6064 0.926257,-0.2841 c 0.50924,-0.1563 0.92294,-0.4129 0.91979,-0.5705 -0.008,-0.158 -0.53264,-0.9825 -1.17472,-1.8328 l -1.168206,-1.5467 1.320386,-1.6806 1.32095,-1.6808 -1.10962,-0.2989 c -0.62115,-0.1673 -1.180343,-0.1968 -1.270188,-0.068 -0.0884,0.1275 -0.577053,0.8212 -1.086295,1.5419 l -0.926251,1.3104 -0.07958,-1.5372 z m -2.588615,0.9452 c -0.0098,0 -0.0195,0.01 -0.03001,0.013 -0.145424,0.09 -0.264299,0.5602 -0.264299,1.0453 0,1.0208 -0.470697,1.3135 -1.489868,0.9261 -1.249797,-0.4754 -1.884143,0.5695 -0.89137,1.468 0.75982,0.6875 0.655795,1.3765 -0.281027,1.8607 -0.591149,0.3058 -0.7877965,0.5754 -0.7274224,0.9988 0.065243,0.4593 0.2861234,0.5973 1.0613954,0.6616 1.107671,0.092 1.49362,0.7259 1.001547,1.6452 -0.610647,1.1411 0.814346,1.7915 1.72357,0.7869 0.66817,-0.7384 1.07137,-0.6614 1.460694,0.2786 0.268948,0.6494 0.469723,0.7919 1.024345,0.7275 0.575702,-0.067 0.704475,-0.2328 0.77752,-1.0039 0.107098,-1.128 0.420227,-1.3512 1.411274,-1.0057 0.836403,0.2916 1.543673,-0.064 1.543673,-0.7775 0,-0.2915 -0.17821,-0.3485 -0.68966,-0.22 -0.49926,0.1251 -0.785169,0.043 -1.036568,-0.3021 -0.329019,-0.4496 -0.385567,-0.4399 -1.05194,0.186 -1.040622,0.9779 -3.014467,0.9428 -4.028838,-0.072 -0.608624,-0.6085 -0.733647,-0.9619 -0.733647,-2.0735 0,-1.1337 0.112351,-1.4363 0.727873,-1.9657 0.616947,-0.5308 0.727497,-0.8311 0.727497,-1.9768 0,-0.7816 -0.08934,-1.2306 -0.234975,-1.2006 z m 2.588615,11.7545 -0.846146,0.082 -0.845922,0.082 -0.07349,3.92 -0.07349,3.92 0.867373,-0.083 c 0.843521,-0.081 0.870296,-0.1221 0.999071,-1.5162 l 0.13215,-1.4327 1.124399,1.6064 1.123945,1.6068 0.926257,-0.2845 c 0.50924,-0.1564 0.92294,-0.4131 0.91979,-0.5704 -0.008,-0.1581 -0.53264,-0.9829 -1.17472,-1.8332 l -1.168206,-1.5466 1.320386,-1.6807 1.32095,-1.6806 -1.10962,-0.2988 c -0.62115,-0.1672 -1.180341,-0.1968 -1.270186,-0.068 -0.08839,0.1274 -0.577053,0.821 -1.086295,1.5418 l -0.926251,1.3104 -0.07958,-1.5371 z m -4.65553,2.4807 c -0.179025,1e-4 -0.318524,0.066 -0.476624,0.1967 -0.505274,0.4193 -0.504823,0.9036 0,1.3227 0.692921,0.5754 0.489523,1.5034 -0.396897,1.8124 -0.597299,0.2082 -0.7937239,0.4413 -0.7937239,0.9403 0,0.5489 0.1601239,0.6931 0.9288719,0.8375 1.17832,0.2212 1.298168,0.4326 0.88717,1.5694 -0.299998,0.8296 -0.281548,0.9615 0.181798,1.3025 0.456974,0.3363 0.578024,0.3212 1.061998,-0.1309 0.839021,-0.784 1.605967,-0.6627 1.795269,0.2838 0.134325,0.6718 0.281623,0.7936 0.959245,0.7936 0.705074,0 0.800319,-0.091 0.800319,-0.7612 0,-1.1534 0.568125,-1.4856 1.615276,-0.9442 0.814949,0.4216 0.878105,0.4197 1.213265,-0.039 0.43973,-0.6013 0.3216,-1.0046 -0.33058,-1.1309 -0.275491,-0.054 -0.642621,-0.2918 -0.816386,-0.5292 -0.286574,-0.3922 -0.377477,-0.3749 -0.973199,0.1848 -1.402944,1.3177 -4.038735,0.7871 -4.705107,-0.9477 -0.405599,-1.0561 -0.09825,-2.4857 0.680246,-3.1621 0.737022,-0.6407 1.004321,-2.0085 0.274049,-1.4024 -0.316347,0.2625 -0.557846,0.263 -1.190995,0 -0.316724,-0.1312 -0.535422,-0.1969 -0.714371,-0.1968 z m 4.65553,10.2194 -0.846146,0.082 -0.845922,0.082 -0.07349,3.9196 -0.07349,3.9198 0.867373,-0.083 c 0.843521,-0.081 0.870296,-0.1219 0.999071,-1.516 l 0.13215,-1.4328 1.124399,1.6065 1.123945,1.6068 0.926257,-0.2846 c 0.50961,-0.1563 0.92354,-0.4129 0.91979,-0.5703 -0.008,-0.1577 -0.53242,-0.9823 -1.17472,-1.8331 l -1.168206,-1.5467 1.320386,-1.6809 1.32095,-1.6806 -1.10962,-0.2987 c -0.62115,-0.1673 -1.180341,-0.1968 -1.270186,-0.068 -0.08839,0.1275 -0.577053,0.8213 -1.086295,1.5419 l -0.926244,1.3104 -0.07958,-1.537 z M 2.9197,180.2647 c -0.19365,0.01 -0.314923,0.1138 -0.513147,0.3329 -0.386924,0.4277 -0.382799,0.5364 0.0495,1.3092 0.456596,0.8166 0.455471,0.8551 -0.04201,1.2268 -0.282601,0.2124 -0.729071,0.3852 -0.992171,0.3852 -0.35085,0 -0.4786492,0.2029 -0.4786492,0.7603 0,0.635 0.1321512,0.7875 0.7999482,0.9209 1.027043,0.2056 1.251896,0.8191 0.664345,1.814 -0.431021,0.7293 -0.433798,0.8235 -0.03748,1.2199 0.396522,0.3965 0.503472,0.3902 1.381717,-0.083 0.935623,-0.5041 0.958048,-0.504 1.320371,-0.011 0.202798,0.2775 0.369148,0.7194 0.369148,0.9826 0,0.3553 0.20415,0.4786 0.793723,0.4786 0.589348,0 0.793723,-0.1233 0.793723,-0.4786 v 0 c 0,-0.2634 0.166123,-0.7055 0.368923,-0.9829 0.362326,-0.4956 0.384753,-0.4957 1.302745,0 0.779246,0.4197 1.002897,0.4454 1.350984,0.1563 0.57324,-0.4757 0.53375,-0.65 -0.370508,-1.64 L 8.89366,185.794 8.20471,186.441 c -0.969969,0.9114 -2.963686,0.9162 -3.928483,0.01 -1.21957,-1.1456 -1.157246,-3.2453 0.13095,-4.4112 C 5.145998,181.3713 5.0305,181.0555 3.868078,180.5674 3.379905,180.3602 3.113579,180.258 2.92008,180.262 Z" inkscape:connector-curvature="0" sodipodi:nodetypes="cccccccccccccccccccccccccsscccsccccccssccsccccccccccccccccccccccccccccccccsscccccccscccccccccccccccccccccccccccccccccccscccccccccscscccccccccccccccccccccccccccccccccccsccccccccccscsccccccccccccccccccccccccccccccsccccccccccccccscccccccccccccccccccccccccccccsscccccsscccccccscccccccccccccccccccccccccccccscccccccccccccccsccccccccccccccccccccccccccscccscscccsscccccsccccccscccccccccccccccccccccccccccccccscccccccccccccccccccccccccccccccccccccccccssccccccccsccccccccscccccccccccccccccccsscccccccccccccccccscscscsccccccccccccccccccccccccccccccscccccccccccccccccscccccccccccccccccccccccccscccccccccccscccsscscccccccccccccccccccccccscccscccccsscccccccccsccccccccccccccccccccccccccsscccccssccccccccccccccccscccc" />
</g>
<g style="display:none" inkscape:label="48x48" id="layer7" inkscape:groupmode="layer">
<path sodipodi:nodetypes="cccccccccccccccccccccccccsscccsccccccssccscccc" inkscape:connector-curvature="0" d="m 7.264446,0.3935323 -0.84615,0.082152 -0.84592,0.081805 -0.0735,3.9198977 -0.0735,3.919908 0.86738,-0.08333 c 0.84352,-0.08119 0.8703,-0.122471 0.99907,-1.51657 l 0.13215,-1.432851 1.1244,1.606872 1.12394,1.606481 0.926254,-0.284468 C 11.10818,8.137043 11.52211,7.880399 11.51836,7.722916 11.51054,7.565432 10.98594,6.740422 10.34363,5.889695 L 9.175436,4.343283 10.49581,2.662397 11.81677,0.981886 10.70715,0.6830632 C 10.086,0.5158489 9.526806,0.4864183 9.436966,0.6160215 9.348576,0.7433743 8.859906,1.437171 8.350666,2.157776 l -0.92625,1.309983 -0.0796,-1.5371 z M 3.457016,2.074044 c -0.13965,0.0095 -0.2925,0.07581 -0.5034,0.188742 -0.60443,0.323451 -0.61793,0.384188 -0.26828,1.220856 0.5028,1.203518 0.25455,1.70415 -0.84577,1.70415 -0.81434,0 -0.89789,0.07117 -0.89789,0.767776 0,0.615318 0.1575,0.822782 0.79372,1.044512 0.88267,0.307693 1.02929,0.950059 0.40537,1.775086 -0.47602,0.62942 -0.47662,0.661795 -0.0233,1.260004 0.33892,0.44708 0.42285,0.45178 1.16542,0.0678 0.96022,-0.49656 1.62599,-0.304246 1.63154,0.4709 0.008,0.68305 0.25635,1.0969 0.7896,1.29995 0.6822,0.25972 0.74513,0.21667 1.0584,-0.73293 v 0 c 0.33757,-1.02266 0.85395,-1.172055 1.78852,-0.51738 0.44633,0.31255 0.70883,0.34134 1.11705,0.12285 0.29369,-0.15712 0.534154,-0.34592 0.534154,-0.41936 0,-0.27201 -1.075134,-2.228912 -1.224304,-2.228912 -0.0852,0 -0.5235,0.310489 -0.97432,0.689875 -0.68999,0.58061 -1.00492,0.668888 -1.98794,0.558083 -1.72462,-0.194395 -2.56064,-1.129708 -2.56064,-2.864537 0,-1.133506 0.11228,-1.435897 0.72787,-1.965379 0.89932,-0.773614 0.91297,-1.178702 0.0668,-1.973514 -0.36517,-0.343008 -0.5604,-0.484369 -0.79297,-0.468572 z" style="display:inline;fill:url(#linearGradient23893);fill-opacity:1;stroke-width:0.134342" id="path23856" inkscape:export-filename="/fittybones/linux/themes/kde/kde5/mine/konq_icons/process-working-kde.png" inkscape:export-xdpi="95.3108" inkscape:export-ydpi="95.3108" />
</g>
</g>
<g style="display:none" inkscape:label="grid" id="layer2" inkscape:groupmode="layer">
<rect inkscape:export-ydpi="96" inkscape:export-xdpi="96" inkscape:export-filename="/fittybones/linux/themes/kde/kde5/mine/konq_icons/process-idle-kde.png" y="-0.0002952823" x="0.0006268532" height="12.7" width="12.7" id="rect23808" style="fill:#000000;fill-opacity:0.321726;stroke-width:0.0473929" />
</g>
</svg>
